<?xml version="1.0" encoding="utf-8"?>
<!-- Generator: Adobe Illustrator 27.5.0, SVG Export Plug-In . SVG Version: 6.00 Build 0)  -->
<svg version="1.1" xmlns="http://www.w3.org/2000/svg" xmlns:xlink="http://www.w3.org/1999/xlink" x="0px" y="0px"
	 viewBox="0 0 500 500" style="enable-background:new 0 0 500 500;" xml:space="preserve">
<g id="BACKGROUND">
	<rect y="0" style="fill-rule:evenodd;clip-rule:evenodd;fill:#FFFFFF;" width="500" height="500"/>
	<g>
		<polygon style="fill-rule:evenodd;clip-rule:evenodd;fill:#E6E6E6;" points="75.521,433.277 405.73,433.277 439.063,120.778 
			60.938,143.695 		"/>
		<path style="fill-rule:evenodd;clip-rule:evenodd;fill:#DBD4D4;" d="M270.343,433.277H405.73l16.001-150.018
			c-0.297-0.082-0.597-0.16-0.898-0.233c-3.081-3.09-6.396-5.949-9.917-8.542c-2.558-17.117-14.603-31.13-30.614-36.522
			c0.233-2.027,0.356-4.085,0.356-6.172v-0.778c10.501,0,19.014-8.514,19.014-19.014c0-8.428-5.486-15.574-13.08-18.067
			c2.159-14.782,6.368-37.918,13.285-54.389c0,0-8.852-0.779-14.581,9.377c0,0-3.647-8.854-15.105-17.448
			c0,0,1.041,4.167,0.78,7.683c0,0-15.539-11.145-35.734-12.084l-11.997,0.727c-1.096,0.19-2.199,0.413-3.309,0.68
			c-27.083,6.51-30.207,9.896-40.624,5.729c0,0-7.548,2.477-7.548,13.284c0,0-3.776-5.47,2.604-16.407
			c-9.635,1.824-27.406,12.288-16.39,43.402c4.467,12.618,7.172,20.221,8.809,24.8c-3.033,3.368-4.879,7.826-4.879,12.715
			c0,7.41,4.237,13.828,10.421,16.965v2.827c0,0.271,0.001,0.542,0.006,0.811l0.006,0.26c0.004,0.181,0.007,0.363,0.013,0.543
			l0.01,0.305c0.007,0.194,0.016,0.389,0.024,0.582l0.009,0.223c0.013,0.257,0.028,0.511,0.045,0.768l0.018,0.267
			c0.013,0.186,0.027,0.372,0.041,0.558l0.023,0.272c0.016,0.184,0.033,0.366,0.05,0.549l0.026,0.27
			c0.022,0.23,0.048,0.46,0.074,0.688l0.034,0.292c0.022,0.188,0.046,0.378,0.07,0.566l0.043,0.312l0.063,0.454l0.052,0.349
			l0.077,0.498l0.043,0.27c0.039,0.241,0.081,0.478,0.124,0.718l0.061,0.326l0.087,0.452l0.068,0.347l0.082,0.396l0.078,0.374
			c0.031,0.141,0.064,0.282,0.096,0.423c0.05,0.221,0.101,0.441,0.153,0.66l0.079,0.329l0.101,0.404l0.089,0.343l0.108,0.404
			l0.09,0.329c0.074,0.264,0.148,0.528,0.226,0.791l0.069,0.241l0.125,0.412l0.104,0.334l0.128,0.402l0.098,0.299
			c0.046,0.141,0.092,0.281,0.14,0.421l0.015,0.044c0.117,0.343,0.236,0.684,0.36,1.025l0.089,0.245l0.175,0.471l0.068,0.174
			c0.065,0.173,0.132,0.346,0.2,0.518l0.011,0.026c0.229,0.579,0.466,1.152,0.714,1.722l0.059,0.135
			c0.074,0.17,0.149,0.34,0.226,0.509l0.05,0.109c0.244,0.539,0.498,1.073,0.758,1.602l0.066,0.134
			c0.082,0.162,0.163,0.325,0.247,0.488l0.068,0.134c0.283,0.552,0.574,1.098,0.877,1.638l0.007,0.013
			c0.096,0.173,0.194,0.345,0.293,0.516l0.051,0.09c0.533,0.927,1.092,1.837,1.677,2.729l0.007,0.01
			c2.331,3.551,5.067,6.815,8.14,9.725l0.036,0.033l0.31,0.291c1.628,1.521,3.303,2.899,5.053,4.17l0.031,0.023
			c0.139,0.101,0.278,0.199,0.418,0.298c0.763,0.545,1.54,1.071,2.332,1.576c-0.013,0.403-0.02,0.805-0.02,1.21
			c0,0.711,0.019,1.415,0.056,2.115c-0.185,0.173-0.369,0.347-0.552,0.521c-14.227-0.567-27.482,8.92-31.065,23.246l-15.379,61.482
			l-0.388,0.103c-3.462,0.928-6.486,2.698-8.91,5.031c-7.091,3.724-11.926,11.158-11.926,19.723c0,9.706,6.212,17.961,14.877,21.007
			c3.287,9.507,11.152,17.247,21.584,19.856l0,0c1.524,0.382,3.051,0.64,4.572,0.783V433.277z"/>
	</g>
</g>
<g id="OBJECTS">
	<g>
		<path style="fill-rule:evenodd;clip-rule:evenodd;fill:#FFFFFF;" d="M203.544,395.466c-1.521-0.143-3.048-0.401-4.572-0.783l0,0
			c-10.433-2.609-18.297-10.349-21.584-19.856c-8.665-3.047-14.878-11.301-14.878-21.007c0-8.565,4.837-16,11.928-19.723
			c2.425-2.333,5.447-4.104,8.91-5.031l0.387-0.104l15.379-61.482c3.584-14.325,16.839-23.812,31.066-23.245
			c0.183-0.174,0.367-0.348,0.552-0.521c-0.037-0.701-0.055-1.405-0.055-2.115c0-0.405,0.007-0.808,0.02-1.21
			c-0.792-0.506-1.569-1.032-2.332-1.576c-0.139-0.099-0.279-0.198-0.418-0.298l-0.031-0.023c-1.75-1.271-3.425-2.649-5.055-4.17
			l-0.31-0.291l-0.034-0.033c-3.073-2.91-5.809-6.174-8.14-9.725l-0.007-0.011c-0.585-0.892-1.144-1.801-1.677-2.729l-0.051-0.09
			c-0.099-0.172-0.197-0.343-0.292-0.516l-0.007-0.013c-0.302-0.54-0.594-1.086-0.877-1.638l-0.07-0.135
			c-0.082-0.162-0.164-0.324-0.245-0.487l-0.066-0.134c-0.26-0.529-0.514-1.063-0.759-1.602l-0.049-0.109
			c-0.076-0.169-0.152-0.339-0.226-0.509l-0.059-0.135c-0.248-0.57-0.487-1.143-0.715-1.722l-0.011-0.026
			c-0.067-0.173-0.134-0.346-0.2-0.518l-0.066-0.174l-0.175-0.47l-0.089-0.245c-0.123-0.34-0.243-0.681-0.36-1.024l-0.014-0.044
			c-0.048-0.14-0.093-0.281-0.14-0.421l-0.098-0.3l-0.128-0.403l-0.105-0.334l-0.125-0.413l-0.07-0.239
			c-0.077-0.263-0.153-0.527-0.225-0.791l-0.091-0.329l-0.107-0.404l-0.089-0.343l-0.101-0.405l-0.079-0.328
			c-0.053-0.22-0.104-0.439-0.154-0.66c-0.032-0.141-0.064-0.282-0.094-0.423l-0.078-0.374l-0.083-0.397l-0.068-0.346l-0.085-0.452
			l-0.061-0.325c-0.044-0.239-0.085-0.478-0.124-0.718l-0.044-0.27l-0.077-0.498l-0.052-0.349l-0.063-0.455l-0.043-0.312
			c-0.025-0.189-0.047-0.378-0.07-0.567l-0.034-0.291c-0.026-0.229-0.051-0.458-0.074-0.688l-0.026-0.27
			c-0.018-0.182-0.034-0.365-0.05-0.549l-0.023-0.274c-0.014-0.185-0.028-0.371-0.041-0.557l-0.019-0.267
			c-0.016-0.256-0.031-0.512-0.044-0.768l-0.009-0.223c-0.008-0.194-0.017-0.387-0.024-0.582l-0.01-0.305
			c-0.006-0.18-0.009-0.361-0.014-0.543l-0.005-0.262c-0.005-0.269-0.007-0.54-0.007-0.81v-2.827
			c-6.184-3.137-10.421-9.556-10.421-16.965c0-4.889,1.846-9.347,4.878-12.715c-1.636-4.579-4.341-12.182-8.808-24.801
			c-11.016-31.112,6.755-41.576,16.39-43.4c-6.38,10.938-2.604,16.406-2.604,16.406c0-10.807,7.548-13.283,7.548-13.283
			c10.417,4.167,13.541,0.782,40.624-5.729c27.083-6.51,51.04,10.676,51.04,10.676c0.261-3.516-0.781-7.682-0.781-7.682
			c11.458,8.594,15.105,17.448,15.105,17.448c5.729-10.156,14.581-9.377,14.581-9.377c-6.918,16.471-11.126,39.607-13.285,54.389
			c7.594,2.493,13.079,9.639,13.079,18.067c0,10.501-8.512,19.013-19.013,19.013v0.779c0,2.086-0.124,4.144-0.356,6.172
			c16.01,5.392,28.055,19.405,30.614,36.522c3.521,2.593,6.835,5.451,9.916,8.542c10.592,2.569,19.526,10.695,22.53,21.91
			l23.994,89.548c2.256,8.419,0.747,16.998-3.481,23.935c-2.955,8.518-9.663,15.278-18.146,18.308v31.146H203.544V395.466z"/>
		<path style="fill-rule:evenodd;clip-rule:evenodd;fill:#27142F;" d="M241.382,247.625l0.001,0.001
			c16.395,4.102,26.454,20.871,22.353,37.266l-22.497,89.938c-4.1,16.395-20.871,26.454-37.266,22.353h-0.001
			c-16.396-4.101-26.454-20.871-22.354-37.268l22.498-89.937C208.216,253.584,224.986,243.525,241.382,247.625z"/>
		<g>
			<path style="fill-rule:evenodd;clip-rule:evenodd;fill:#402147;" d="M349.118,239.889c21.074,15.522,34.813,40.494,34.813,68.522
				v124.866H208.543V308.411c0-24.486,10.489-46.638,27.19-62.198c-0.037-0.701-0.057-1.404-0.057-2.115
				c0-21.861,17.723-39.583,39.584-39.583c3.027,0,5.975,0.341,8.809,0.986c6-2.895,12.729-4.516,19.837-4.516
				C326.839,200.985,345.828,217.872,349.118,239.889z"/>
			<path style="fill-rule:evenodd;clip-rule:evenodd;fill:#27142F;" d="M383.931,317.578v115.699H208.543v-40.553
				c39.182,39.956,151.105,16.204,144.398-69.135C352.941,323.589,366.535,320.934,383.931,317.578z"/>
			<g>
				<path style="fill-rule:evenodd;clip-rule:evenodd;fill:#27142F;" d="M264.712,283.726c-1.457,12.347-8.912,59.009-38.749,63.055
					l0.294,2.187c31.425-4.261,39.16-52.382,40.656-65.016c1.161-0.295,2.109-1.227,2.365-2.478
					c0.356-1.743-0.768-3.445-2.511-3.801c-1.742-0.355-3.444,0.769-3.8,2.511C262.667,281.656,263.421,283.099,264.712,283.726z"/>
				<path style="fill-rule:evenodd;clip-rule:evenodd;fill:#F04872;" d="M235.063,341.732l-4.626,2.303
					c-1.689,0.841-2.382,2.909-1.541,4.598l0.001,0.003c0.841,1.689,2.909,2.382,4.596,1.541l4.626-2.304
					c1.689-0.841,2.382-2.908,1.54-4.598v-0.001C238.819,341.585,236.752,340.891,235.063,341.732z"/>
			</g>
		</g>
		<g>
			<path style="fill-rule:evenodd;clip-rule:evenodd;fill:#FFFFFF;" d="M213.392,290.98l43.68-2.518
				c2.431-0.14,4.533,1.734,4.673,4.164l4.299,74.619c0.141,2.43-1.733,4.533-4.163,4.673l-43.68,2.517
				c-2.431,0.139-4.534-1.733-4.673-4.164l-4.301-74.619C209.088,293.223,210.962,291.12,213.392,290.98z"/>
			<path style="fill-rule:evenodd;clip-rule:evenodd;fill:#E6E6E6;" d="M263.066,315.54l2.98,51.704
				c0.139,2.432-1.735,4.535-4.166,4.675l-43.677,2.517c-2.431,0.141-4.535-1.734-4.675-4.164l-2.573-44.647
				C219.235,337.966,246.89,347.444,263.066,315.54L263.066,315.54z"/>
			<path style="fill-rule:evenodd;clip-rule:evenodd;fill:#402147;" d="M218.279,304.696c2.348,0,4.263-1.917,4.263-4.265
				c0-2.348-1.915-4.264-4.263-4.264c-2.349,0-4.265,1.915-4.265,4.264C214.014,302.779,215.93,304.696,218.279,304.696z"/>
		</g>
		<g>
			<path style="fill-rule:evenodd;clip-rule:evenodd;fill:#F58282;" d="M189.776,378.582c12.263,0,22.264-10.001,22.264-22.264
				c0-12.263-10.001-22.264-22.264-22.264c-12.263,0-22.264,10.001-22.264,22.264C167.512,368.581,177.513,378.582,189.776,378.582z
				"/>
			<g>
				<g>
					<path style="fill-rule:evenodd;clip-rule:evenodd;fill:#FFB199;" d="M218.602,323.46l-12.715,3.406
						c-2.741,0.734-4.38,3.574-3.647,6.315l0.001,0.001c0.734,2.74,3.574,4.38,6.314,3.646l12.716-3.408
						c2.74-0.734,4.38-3.574,3.645-6.314v-0.001C224.182,324.365,221.342,322.725,218.602,323.46z"/>
					<path style="fill-rule:evenodd;clip-rule:evenodd;fill:#FFB199;" d="M231.916,341.244l-20.691,5.544
						c-2.74,0.734-5.58-0.905-6.315-3.645v-0.001c-0.734-2.74,0.906-5.58,3.646-6.314l20.692-5.544
						c2.74-0.735,5.579,0.906,6.314,3.645v0.001C236.295,337.67,234.656,340.51,231.916,341.244z"/>
					<path style="fill-rule:evenodd;clip-rule:evenodd;fill:#F58282;" d="M226.837,342.605l-12.716,3.407
						c-2.74,0.735-4.38,3.575-3.645,6.314v0.001c0.734,2.741,3.574,4.38,6.314,3.646l12.715-3.406
						c2.741-0.734,4.38-3.574,3.647-6.315l-0.001-0.001C232.417,343.511,229.576,341.871,226.837,342.605z"/>
					<path style="fill-rule:evenodd;clip-rule:evenodd;fill:#F58282;" d="M225.745,364.251l-6.284,1.684
						c-2.741,0.734-5.581-0.906-6.315-3.646v-0.001c-0.734-2.74,0.906-5.579,3.646-6.314l6.286-1.684
						c2.739-0.735,5.58,0.906,6.314,3.645v0.001C230.125,360.676,228.486,363.516,225.745,364.251z"/>
				</g>
				<path style="fill-rule:evenodd;clip-rule:evenodd;fill:#FFB199;" d="M218.947,366.072l-10.676-39.845l-19.924,5.338
					c-10.956,2.936-17.519,14.302-14.583,25.261v0.001c2.936,10.958,14.303,17.519,25.261,14.583L218.947,366.072z"/>
			</g>
		</g>
		<g>
			<g>
				<path style="fill-rule:evenodd;clip-rule:evenodd;fill:#593361;" d="M343.928,248.612l0.001-0.001
					c16.326-4.374,33.26,5.404,37.635,21.728l23.994,89.549c4.374,16.326-5.403,33.261-21.728,37.635h-0.001
					c-16.326,4.375-33.26-5.403-37.635-21.728l-23.994-89.549C317.826,269.922,327.603,252.986,343.928,248.612z"/>
				
					<ellipse transform="matrix(0.7071 -0.7071 0.7071 0.7071 -154.9759 373.9438)" style="fill-rule:evenodd;clip-rule:evenodd;fill:#FFFFFF;" cx="373.902" cy="374.044" rx="29.818" ry="29.818"/>
			</g>
			<g>
				<g>
					<g>
						<path style="fill-rule:evenodd;clip-rule:evenodd;fill:#FFB199;" d="M253.037,321.484l12.716,3.407
							c2.74,0.734,4.38,3.574,3.645,6.314v0.001c-0.735,2.74-3.574,4.38-6.314,3.645l-12.715-3.407
							c-2.741-0.733-4.38-3.574-3.646-6.314v-0.001C247.457,322.39,250.297,320.75,253.037,321.484z"/>
						<path style="fill-rule:evenodd;clip-rule:evenodd;fill:#FFB199;" d="M239.722,339.27l20.692,5.544
							c2.741,0.734,5.581-0.906,6.315-3.645v-0.001c0.734-2.741-0.906-5.581-3.646-6.314l-20.692-5.545
							c-2.739-0.734-5.58,0.906-6.314,3.645v0.001C235.343,335.696,236.982,338.535,239.722,339.27z"/>
						<path style="fill-rule:evenodd;clip-rule:evenodd;fill:#F58282;" d="M244.802,340.631l12.715,3.406
							c2.74,0.734,4.38,3.574,3.646,6.315v0.001c-0.734,2.74-3.574,4.38-6.315,3.645l-12.716-3.407
							c-2.739-0.734-4.38-3.574-3.646-6.314l0.001-0.001C239.221,341.535,242.061,339.896,244.802,340.631z"/>
						<path style="fill-rule:evenodd;clip-rule:evenodd;fill:#F58282;" d="M245.894,362.276l6.284,1.683
							c2.741,0.734,5.581-0.905,6.315-3.646v-0.001c0.735-2.74-0.906-5.58-3.645-6.314l-6.285-1.684
							c-2.74-0.734-5.58,0.906-6.314,3.646v0.001C241.514,358.702,243.153,361.542,245.894,362.276z"/>
					</g>
					<path style="fill-rule:evenodd;clip-rule:evenodd;fill:#F58282;" d="M288.105,326.444c6.703,1.797,10.681,8.686,8.885,15.39
						c-1.797,6.702-8.687,10.68-15.39,8.884c-6.702-1.795-10.681-8.685-8.884-15.388
						C274.512,328.626,281.401,324.649,288.105,326.444z"/>
					<path style="fill-rule:evenodd;clip-rule:evenodd;fill:#FFB199;" d="M252.691,364.097l10.677-39.845l19.922,5.339
						c10.958,2.936,17.52,14.302,14.584,25.259v0.001c-2.936,10.958-14.302,17.52-25.26,14.585L252.691,364.097z"/>
				</g>
				<g>
					<path style="fill-rule:evenodd;clip-rule:evenodd;fill:#FFB199;" d="M280.236,352.431v-0.003
						c3.155-11.772,15.367-18.823,27.14-15.668l64.58,17.304c11.774,3.155,18.824,15.367,15.67,27.14l-0.001,0.003
						c-3.154,11.772-15.367,18.824-27.14,15.669l-64.582-17.305C284.131,376.416,277.081,364.204,280.236,352.431z"/>
					<path style="fill-rule:evenodd;clip-rule:evenodd;fill:#F58282;" d="M367.949,352.991l4.005,1.073
						c11.774,3.155,18.826,15.368,15.671,27.141l0,0c-3.154,11.774-15.369,18.824-27.141,15.67l-4.51-1.209
						c9.051-1.715,16.817-8.439,19.35-17.891v-0.001C377.803,368.522,374.633,359.026,367.949,352.991z"/>
				</g>
			</g>
		</g>
		<g>
			<path style="fill-rule:evenodd;clip-rule:evenodd;fill:#27142F;" d="M290.726,283.716c-1.044,12.388-3.079,59.599,25.343,69.536
				l-0.726,2.085c-29.936-10.466-27.881-59.162-26.818-71.84c-1.077-0.52-1.821-1.624-1.821-2.9c0-1.779,1.442-3.22,3.22-3.22
				c1.779,0,3.22,1.441,3.22,3.22C293.144,282.098,292.118,283.359,290.726,283.716z"/>
			<path style="fill-rule:evenodd;clip-rule:evenodd;fill:#F04872;" d="M308.164,346.484l4.071,3.182
				c1.487,1.162,1.752,3.327,0.59,4.813l-0.003,0.001c-1.162,1.486-3.326,1.751-4.812,0.59l-4.072-3.182
				c-1.486-1.162-1.75-3.327-0.588-4.813l0.001-0.001C304.513,345.586,306.678,345.322,308.164,346.484z"/>
		</g>
		<g>
			<path style="fill-rule:evenodd;clip-rule:evenodd;fill:#F58282;" d="M244.79,218.849l57.352-15.368l7.683,28.676
				c4.227,15.772-5.22,32.133-20.992,36.359l0,0c-15.772,4.227-32.133-5.22-36.359-20.992L244.79,218.849z"/>
			<g>
				<path style="fill-rule:evenodd;clip-rule:evenodd;fill:#402147;" d="M322.975,173.697c0,0,4.167-42.708,15.104-68.75
					c0,0-8.852-0.779-14.582,9.377c0,0-3.646-8.854-15.105-17.448c0,0,1.043,4.167,0.782,7.682c0,0-23.957-17.186-51.041-10.676
					c-27.083,6.51-30.207,9.895-40.625,5.729c0,0-7.547,2.476-7.547,13.283c0,0-3.776-5.468,2.604-16.406
					c-9.636,1.823-27.406,12.287-16.391,43.4c11.016,31.113,11.313,31.73,11.313,31.73L322.975,173.697z"/>
				<path style="fill-rule:evenodd;clip-rule:evenodd;fill:#593361;" d="M272.682,94.982c7.119,0,12.891,1.72,12.891,3.841
					s-5.772,3.841-12.891,3.841c-7.119,0-12.891-1.72-12.891-3.841S265.563,94.982,272.682,94.982L272.682,94.982z M291.772,101.327
					c1.582,0,2.864,0.816,2.864,1.823c0,1.007-1.282,1.823-2.864,1.823c-1.582,0-2.865-0.816-2.865-1.823
					C288.907,102.143,290.189,101.327,291.772,101.327z"/>
			</g>
			<g>
				<path style="fill-rule:evenodd;clip-rule:evenodd;fill:#F58282;" d="M219.12,196.417c10.472,0,19.013-8.541,19.013-19.013
					c0-10.472-8.541-19.014-19.013-19.014c-10.472,0-19.014,8.541-19.014,19.014C200.106,187.876,208.647,196.417,219.12,196.417z"
					/>
				<path style="fill-rule:evenodd;clip-rule:evenodd;fill:#FFB199;" d="M210.527,143.029h108.333v15.363
					c10.501,0,19.013,8.512,19.013,19.012s-8.512,19.013-19.013,19.013v0.779c0,29.792-24.374,54.166-54.166,54.166h-0.001
					c-29.792,0-54.166-24.374-54.166-54.166V143.029z"/>
				<path style="fill-rule:evenodd;clip-rule:evenodd;fill:#F58282;" d="M210.527,143.029h35.243
					c0.916,8.94,2.804,33.192-2.462,42.459c-7.784-7.26-23.343,4.784,1.698,17.06l0.474,45.27c-1.631-0.624-3.224-1.325-4.775-2.098
					v0.001c-5.473-2.788-10.06-6.042-14.395-10.405c-9.747-9.81-15.783-23.301-15.783-38.12V143.029z"/>
				<path style="fill-rule:evenodd;clip-rule:evenodd;fill:#F58282;" d="M210.527,143.029h103.219v16.287l-10.031-11.909
					c-86.664,19.515-92.848,2.6-93.189-1.185v-0.712V143.029z"/>
				<path style="fill-rule:evenodd;clip-rule:evenodd;fill:#F58282;" d="M320.358,167.705c6.472,0,11.718,5.246,11.718,11.717
					c0,6.472-5.247,11.717-11.718,11.717c-1.871,0-3.64-0.439-5.209-1.22c2.531-0.958,4.332-3.404,4.332-6.271
					c0-3.702-3.001-6.704-6.703-6.704c-1.538,0-2.954,0.517-4.084,1.388C309.242,172.372,314.254,167.705,320.358,167.705z"/>
			</g>
			<path style="fill-rule:evenodd;clip-rule:evenodd;fill:#402147;" d="M210.527,134.835v8.193c0,0-10.973,17.068,98.141,3.787
				l5.079,12.5l5.114-0.924l5.429-20.264L210.527,134.835z"/>
			<g>
				<g>
					<path style="fill-rule:evenodd;clip-rule:evenodd;fill:#402147;" d="M225.14,175.039l7.807,0.268l-0.127,3.708
						c-0.07,2.041-1.794,3.652-3.836,3.58l-0.39-0.013c-2.041-0.07-3.651-1.794-3.581-3.835L225.14,175.039z"/>
					<path style="fill-rule:evenodd;clip-rule:evenodd;fill:#402147;" d="M276.44,175.039l-7.807,0.267l0.127,3.709
						c0.07,2.041,1.794,3.65,3.836,3.58l0.39-0.013c2.041-0.07,3.651-1.794,3.582-3.835L276.44,175.039z"/>
					<path style="fill-rule:evenodd;clip-rule:evenodd;fill:#402147;" d="M265.504,167.839l20.377-5.209
						c0,0-6.054-4.883-21.615,0.26C264.267,162.891,263.584,165.527,265.504,167.839z"/>
					<path style="fill-rule:evenodd;clip-rule:evenodd;fill:#402147;" d="M238.161,167.839l-20.378-5.209
						c0,0,6.055-4.883,21.615,0.26C239.397,162.891,240.081,165.527,238.161,167.839z"/>
				</g>
				<g>
					<path style="fill-rule:evenodd;clip-rule:evenodd;fill:#27142F;" d="M274.852,213.445c0,10.067-8.161,18.229-18.23,18.229
						c-10.067,0-18.229-8.161-18.229-18.229H274.852z"/>
					<path style="fill-rule:evenodd;clip-rule:evenodd;fill:#F26D6D;" d="M269.442,226.404c-3.294,3.258-7.822,5.272-12.821,5.272
						c-3.786,0-7.304-1.156-10.219-3.132c0.783-2.434,3.066-4.195,5.76-4.195c1.775,0,3.373,0.764,4.479,1.983
						c1.722-1.437,3.939-2.302,6.356-2.302C265.458,224.028,267.709,224.923,269.442,226.404z"/>
					<path style="fill-rule:evenodd;clip-rule:evenodd;fill:#FFFFFF;" d="M273.136,213.445c-0.859,3.33-7.924,5.926-16.514,5.926
						c-8.589,0-15.655-2.596-16.513-5.926H273.136z"/>
					<path style="fill-rule:evenodd;clip-rule:evenodd;fill:#FFFFFF;" d="M262.661,214.62l7.992-0.513l-1.328,3.533
						c-0.342,0.91-1.116,1.506-2.082,1.607c-0.966,0.101-1.847-0.326-2.368-1.145L262.661,214.62z"/>
				</g>
				<path style="fill-rule:evenodd;clip-rule:evenodd;fill:#F58282;" d="M249.418,193.922c2.276,0.61,3.745,2.513,3.279,4.251
					c-0.262,0.974-1.073,1.689-2.138,2.021c0.066-0.116,0.117-0.242,0.153-0.374c0.303-1.132-0.652-2.369-2.133-2.766
					c-1.482-0.398-2.928,0.198-3.231,1.329c-0.035,0.132-0.053,0.267-0.055,0.4c-0.755-0.821-1.1-1.846-0.84-2.82
					C244.919,194.227,247.142,193.312,249.418,193.922z"/>
			</g>
		</g>
		<g>
			<path style="fill-rule:evenodd;clip-rule:evenodd;fill:#F04872;" d="M311.525,87.792c2.849-2.673,6.736-7.548,7.81-14.911
				c0.167-1.148,1.063-2.006,2.217-2.126c1.154-0.119,2.206,0.54,2.603,1.629c2.016,5.515,3.015,13.129-1.08,21.477
				c-0.583,1.187-1.98,1.714-3.201,1.208l-7.594-3.145c-0.808-0.335-1.347-1.001-1.503-1.861
				C310.62,89.202,310.887,88.39,311.525,87.792z"/>
			<path style="fill-rule:evenodd;clip-rule:evenodd;fill:#F04872;" d="M220.796,85.015c-2.468-3.027-5.671-8.376-5.756-15.816
				c-0.013-1.161-0.788-2.131-1.915-2.402c-1.127-0.271-2.258,0.242-2.797,1.268c-2.73,5.198-4.733,12.611-1.785,21.43
				c0.419,1.253,1.735,1.962,3.012,1.624l7.946-2.108c0.844-0.224,1.466-0.812,1.736-1.644
				C221.506,86.534,221.349,85.692,220.796,85.015z"/>
		</g>
	</g>
	<g>
		<g>
			<path style="fill-rule:evenodd;clip-rule:evenodd;fill:#FFFFFF;" d="M162.406,203.249l16.923,2.626
				c2.42,0.376,4.892,2.787,5.493,5.358l3.496,14.967c0.602,2.571-0.887,4.369-3.308,3.993l-16.923-2.626
				c-2.42-0.376-4.893-2.787-5.493-5.358l-3.497-14.967C158.496,204.672,159.985,202.874,162.406,203.249z"/>
			<g>
				<path style="fill-rule:evenodd;clip-rule:evenodd;fill:#FFFFFF;" d="M149.765,162.962c19.737-1.764,37.167,12.807,38.93,32.544
					c1.764,19.737-12.808,37.168-32.545,38.93c-19.738,1.764-37.167-12.808-38.93-32.544
					C115.456,182.154,130.028,164.724,149.765,162.962z"/>
				<g>
					<path style="fill-rule:evenodd;clip-rule:evenodd;fill:#F04872;" d="M151.903,220.355c-0.999-0.007-1.998-0.346-2.82-1.034
						l-15.463-12.926c-3.061-2.24-5.004-5.672-5.343-9.457c-0.647-7.244,4.703-13.643,11.947-14.289
						c3.327-0.297,6.475,0.67,8.971,2.506l-1.405,15.024l4.902,3.63l-3.567,5.608L151.903,220.355z"/>
					<path style="fill-rule:evenodd;clip-rule:evenodd;fill:#F04872;" d="M171.825,205.391l-15.296,13.125
						c-1.05,0.9-2.405,1.226-3.674,1.003l-0.941-11.246l4.443-4.945l-4.238-4.387l3.858-14.588c2.472-1.868,5.608-2.877,8.938-2.622
						c7.251,0.555,12.682,6.884,12.129,14.135C176.755,199.656,174.855,203.113,171.825,205.391z"/>
					<path style="fill-rule:evenodd;clip-rule:evenodd;fill:#F04872;" d="M146.477,178.071l3.02,4.206l1.842-4.996L146.477,178.071
						L146.477,178.071z M156.624,177.526l-1.472,2.536l2.585-0.893L156.624,177.526z"/>
				</g>
			</g>
		</g>
		<g>
			<path style="fill-rule:evenodd;clip-rule:evenodd;fill:#FFFFFF;" d="M128.586,284.714l11.376-12.802
				c1.626-1.831,4.993-2.603,7.48-1.715l14.475,5.17c2.487,0.888,3.19,3.114,1.563,4.945l-11.375,12.802
				c-1.627,1.831-4.993,2.602-7.48,1.713l-14.475-5.17C127.664,288.769,126.96,286.545,128.586,284.714z"/>
			<g>
				<path style="fill-rule:evenodd;clip-rule:evenodd;fill:#FFFFFF;" d="M117.184,324.902c19.763,0,35.88-16.118,35.88-35.88
					s-16.117-35.88-35.88-35.88s-35.881,16.117-35.881,35.88S97.422,324.902,117.184,324.902z"/>
				<path style="fill-rule:evenodd;clip-rule:evenodd;fill:#618BE0;" d="M129.976,276.319c3.489,0,6.316,4.11,6.316,9.18
					c0,5.069-2.827,9.18-6.316,9.18c-0.181,0-0.36-0.013-0.538-0.034c-0.218,0.375-0.454,0.763-0.71,1.162
					c-1.659,2.584-2.61,5.103-3.153,7.194c-0.378,1.454-1.647,2.436-3.15,2.436h-0.711c-0.945,0-1.759-0.356-2.397-1.052
					c-0.64-0.697-0.926-1.536-0.847-2.478c0.179-2.118,0.583-3.729,1.073-4.951h-9.123h-3.256h-1.622
					c-1.673,0-3.043-1.369-3.043-3.043l0,0c0-1.675,1.369-3.044,3.043-3.044h-4.423c-1.674,0-3.044-1.369-3.044-3.044l0,0
					c0-1.674,1.37-3.044,3.044-3.044h1.831c-1.673,0-3.043-1.369-3.043-3.043l0,0c0-1.675,1.369-3.044,3.043-3.044h3.687
					c-1.673,0-3.043-1.369-3.043-3.043v-0.001c0-1.673,1.369-3.043,3.043-3.043h0.527h4.408h8.105c3.521,0,6.705,1.515,8.933,3.925
					C129.049,276.394,129.506,276.319,129.976,276.319z"/>
			</g>
		</g>
		<g>
			<path style="fill-rule:evenodd;clip-rule:evenodd;fill:#FFFFFF;" d="M136.174,390.779l9.458-14.276
				c1.353-2.042,4.576-3.28,7.164-2.751l15.058,3.08c2.588,0.529,3.598,2.633,2.244,4.675l-9.458,14.277
				c-1.352,2.042-4.576,3.281-7.163,2.751l-15.059-3.08C135.831,394.925,134.821,392.821,136.174,390.779z"/>
			<g>
				<path style="fill-rule:evenodd;clip-rule:evenodd;fill:#FFFFFF;" d="M121.613,358.755c19.619-2.79,37.785,10.85,40.576,30.469
					c2.792,19.618-10.85,37.784-30.468,40.575c-19.619,2.792-37.785-10.849-40.577-30.468
					C88.353,379.714,101.995,361.547,121.613,358.755z"/>
				<g>
					<path style="fill-rule:evenodd;clip-rule:evenodd;fill:#FFC369;" d="M123.902,374.841c10.734-1.527,20.673,5.937,22.201,16.672
						c1.527,10.734-5.937,20.674-16.671,22.201c-10.734,1.528-20.673-5.936-22.201-16.67
						C105.704,386.308,113.167,376.369,123.902,374.841z"/>
					<g>
						<path style="fill-rule:evenodd;clip-rule:evenodd;fill:#402147;" d="M118.679,391.367h0.002
							c1.527-0.217,2.954,0.854,3.17,2.381l0.153,1.071c0.217,1.527-0.854,2.953-2.381,3.171h-0.002
							c-1.526,0.216-2.954-0.854-3.17-2.381l-0.153-1.071C116.082,393.011,117.152,391.585,118.679,391.367z"/>
						<path style="fill-rule:evenodd;clip-rule:evenodd;fill:#402147;" d="M133.523,389.255h0.002
							c1.527-0.218,2.954,0.854,3.171,2.381l0.152,1.07c0.217,1.527-0.854,2.953-2.38,3.17h-0.003
							c-1.527,0.217-2.954-0.854-3.17-2.38l-0.153-1.071C130.925,390.899,131.996,389.473,133.523,389.255z"/>
						<path style="fill-rule:evenodd;clip-rule:evenodd;fill:#402147;" d="M127.453,400.179c2.901-0.412,5.621,1.217,6.705,3.798
							c-1.706-0.678-3.91-0.928-6.248-0.595c-2.341,0.332-4.387,1.188-5.837,2.314C122.394,402.916,124.551,400.592,127.453,400.179
							z"/>
						<path style="fill-rule:evenodd;clip-rule:evenodd;fill:#402147;" d="M128.808,389.242l8.89-3.791
							C136.98,384.706,130.334,384.428,128.808,389.242z"/>
						<path style="fill-rule:evenodd;clip-rule:evenodd;fill:#402147;" d="M123.206,390.039l-9.594-1.161
							C114.093,387.963,120.397,385.841,123.206,390.039z"/>
					</g>
					<path style="fill-rule:evenodd;clip-rule:evenodd;fill:#FFE7C2;" d="M117.57,377.789c2.376-0.928,3.968-0.305,3.554,1.391
						c-0.414,1.695-2.674,3.821-5.051,4.749c-2.376,0.926-3.966,0.303-3.553-1.392C112.934,380.842,115.195,378.715,117.57,377.789z
						"/>
				</g>
			</g>
		</g>
		<g>
			<path style="fill-rule:evenodd;clip-rule:evenodd;fill:#FFFFFF;" d="M89.732,198.218c5.88,0,10.677-4.797,10.677-10.677
				c0-5.88-4.797-10.677-10.677-10.677c-5.88,0-10.677,4.796-10.677,10.677C79.055,193.421,83.852,198.218,89.732,198.218z"/>
			<path style="fill-rule:evenodd;clip-rule:evenodd;fill:#FFFFFF;" d="M86.867,228.426c2.582,0,4.686-2.104,4.686-4.687
				c0-2.582-2.105-4.688-4.686-4.688c-2.582,0-4.688,2.106-4.688,4.688C82.179,226.321,84.285,228.426,86.867,228.426z"/>
			<path style="fill-rule:evenodd;clip-rule:evenodd;fill:#FFFFFF;" d="M397.282,217.97c5.307,0,9.636-4.328,9.636-9.635
				c0-5.307-4.329-9.636-9.636-9.636c-5.307,0-9.635,4.329-9.635,9.636C387.647,213.643,391.975,217.97,397.282,217.97z"/>
			<path style="fill-rule:evenodd;clip-rule:evenodd;fill:#FFFFFF;" d="M177.493,422.697c2.868,0,5.208-2.34,5.208-5.209
				c0-2.868-2.339-5.208-5.208-5.208c-2.869,0-5.209,2.339-5.209,5.208C172.284,420.357,174.624,422.697,177.493,422.697z"/>
		</g>
	</g>
</g>
</svg>
